# xmcd
#
# Track frame offsets:
#	150
#	15520
#	32177
#	51372
#	67350
#	83247
#	101770
#	126297
#	138457
#	151045
#	169872
#	187172
#	202270
#	214122
#	226047
#	245247
#	261072
#	274647
#	286572
#	302502
#	319494
#	332472
#
# Disc length: 4542 seconds
#
# Revision: 1
# Processed by: cddbd v1.5.2PL0 Copyright (c) Steve Scherf et al.
# Submitted via: EZCDAudioConverter 7.0.5.1
#
DISCID=4811bc16
DTITLE=Freud Marx Engels and Jung - 44 Kantria Ja Rokkia Disk 1
DYEAR=1998
DGENRE=
TTITLE0=Pitkätukkainen Punaniska
TTITLE1=Kari, Tapio Ja Mä
TTITLE2=Mystinen Metsätyömies
TTITLE3=Danny Show
TTITLE4=Mua Älä Hylkää
TTITLE5=Särkynytsydämiset (Viekää Minut Baariin)
TTITLE6=Sunnuntaiaamun Kadut
TTITLE7=Pallojuoma
TTITLE8=Nattasia Katsomassa Eli Pekuulijenkka Twist
TTITLE9=Kipee
TTITLE10=Mun Vanha Pannupää
TTITLE11=Teksasiin
TTITLE12=Tursaan Puutarhassa
TTITLE13=Viski and Naiset
TTITLE14=Lintumies
TTITLE15=Sammutetuin Lyhdyin
TTITLE16=Jotkut Päivät On Kultaa
TTITLE17=Jaloviinaa
TTITLE18=Dracula Ja Pyhä Nicolae
TTITLE19=On Se Hyvä (Ettei Lehmät Lennä)
TTITLE20=En Koskaan Mene Sänkyyn Ruman Naisen Kanssa
TTITLE21=Metsän Poika
EXTD=
EXTT0=
EXTT1=
EXTT2=
EXTT3=
EXTT4=
EXTT5=
EXTT6=
EXTT7=
EXTT8=
EXTT9=
EXTT10=
EXTT11=
EXTT12=
EXTT13=
EXTT14=
EXTT15=
EXTT16=
EXTT17=
EXTT18=
EXTT19=
EXTT20=
EXTT21=
PLAYORDER=
